<svg width="16" height="10" viewBox="0 0 16 10" fill="C8AB58" xmlns="http://www.w3.org/2000/svg">
<path d="M8 9.65527C7.6735 9.65527 7.37467 9.52246 7.10352 9.25684L0.853027 2.86523C0.747884 2.75456 0.667643 2.63558 0.612305 2.5083C0.5625 2.38102 0.537598 2.23991 0.537598 2.08496C0.537598 1.88021 0.587402 1.69206 0.687012 1.52051C0.786621 1.34896 0.919434 1.21338 1.08545 1.11377C1.257 1.01416 1.44515 0.964355 1.6499 0.964355C1.9598 0.964355 2.23096 1.0778 2.46338 1.30469L8.38184 7.38086H7.62646L13.5283 1.30469C13.7607 1.0778 14.0319 0.964355 14.3418 0.964355C14.5465 0.964355 14.7319 1.01416 14.8979 1.11377C15.0695 1.21338 15.2051 1.34896 15.3047 1.52051C15.4043 1.69206 15.4541 1.88021 15.4541 2.08496C15.4541 2.38932 15.3462 2.64665 15.1304 2.85693L8.89648 9.25684C8.76367 9.38965 8.62256 9.48926 8.47314 9.55566C8.32926 9.61654 8.17155 9.64974 8 9.65527Z" fill="#C8AB58"/>
</svg>
