<svg width="23" height="23" viewBox="-5 0 60 50" fill="none" xmlns="http://www.w3.org/2000/svg">
<path d="M23 2C23 1.44772 23.4477 1 24 1H25.5C26.0523 1 26.5 1.44772 26.5 2V5C26.5 5.55228 26.0523 6 25.5 6H24C23.4477 6 23 5.55228 23 5V2Z" fill="#EBEDF0"/>
<path d="M17.1153 3.30138C16.9723 2.76791 17.2889 2.21957 17.8224 2.07663L19.2713 1.6884C19.8047 1.54546 20.3531 1.86204 20.496 2.39551L21.2725 5.29329C21.4154 5.82675 21.0988 6.37509 20.5654 6.51803L19.1165 6.90626C18.583 7.0492 18.0347 6.73262 17.8917 6.19915L17.1153 3.30138Z" fill="#EBEDF0"/>
<path d="M12.1341 4.71533C11.6558 4.99147 11.4919 5.60306 11.7681 6.08136L13.2681 8.67943C13.5442 9.15773 14.1558 9.3216 14.6341 9.04546L15.9331 8.29546C16.4114 8.01932 16.5753 7.40773 16.2992 6.92943L14.7992 4.33136C14.523 3.85306 13.9114 3.68919 13.4331 3.96533L12.1341 4.71533Z" fill="#EBEDF0"/>
<path d="M7.32234 10.1507C6.93182 9.76019 6.93182 9.12702 7.32234 8.7365L8.383 7.67584C8.77353 7.28531 9.40669 7.28531 9.79722 7.67584L11.9185 9.79716C12.3091 10.1877 12.3091 10.8208 11.9185 11.2114L10.8579 12.272C10.4674 12.6626 9.83419 12.6626 9.44366 12.272L7.32234 10.1507Z" fill="#EBEDF0"/>
<path d="M3.71533 13.8659C3.43919 14.3442 3.60306 14.9558 4.08136 15.2319L6.67943 16.7319C7.15773 17.0081 7.76932 16.8442 8.04546 16.3659L8.79546 15.0669C9.0716 14.5886 8.90773 13.977 8.42943 13.7008L5.83136 12.2008C5.35307 11.9247 4.74147 12.0886 4.46533 12.5669L3.71533 13.8659Z" fill="#EBEDF0"/>
<path d="M2.26622 20.979C1.73275 20.8361 1.41617 20.2878 1.55911 19.7543L1.94734 18.3054C2.09028 17.7719 2.63862 17.4554 3.17209 17.5983L6.06986 18.3748C6.60333 18.5177 6.91991 19.066 6.77697 19.5995L6.38874 21.0484C6.2458 21.5819 5.69746 21.8984 5.164 21.7555L2.26622 20.979Z" fill="#EBEDF0"/>
<path d="M1 26C1 26.5523 1.44772 27 2 27H5C5.55228 27 6 26.5523 6 26V24.5C6 23.9477 5.55228 23.5 5 23.5H2C1.44772 23.5 1 23.9477 1 24.5V26Z" fill="#EBEDF0"/>
<path d="M3.30138 32.8847C2.76791 33.0277 2.21957 32.7111 2.07663 32.1776L1.6884 30.7287C1.54546 30.1953 1.86204 29.6469 2.39551 29.504L5.29329 28.7275C5.82675 28.5846 6.37509 28.9012 6.51803 29.4346L6.90626 30.8835C7.0492 31.417 6.73262 31.9653 6.19915 32.1083L3.30138 32.8847Z" fill="#EBEDF0"/>
<path d="M4.71533 37.8659C4.99147 38.3442 5.60306 38.5081 6.08136 38.2319L8.67943 36.7319C9.15773 36.4558 9.3216 35.8442 9.04546 35.3659L8.29546 34.0669C8.01932 33.5886 7.40773 33.4247 6.92943 33.7008L4.33136 35.2008C3.85306 35.477 3.68919 36.0886 3.96533 36.5669L4.71533 37.8659Z" fill="#EBEDF0"/>
<g opacity="0.3">
<path d="M30.2457 1.55886C29.7123 1.41592 29.1639 1.7325 29.021 2.26597L28.2445 5.16374C28.1016 5.69721 28.4182 6.24555 28.9516 6.38849L30.4005 6.77672C30.934 6.91966 31.4823 6.60308 31.6253 6.06961L32.4017 3.17183C32.5447 2.63837 32.2281 2.09003 31.6946 1.94709L30.2457 1.55886Z" fill="white"/>
<path d="M35.3077 3.23436C35.5922 2.76095 36.2065 2.60778 36.6799 2.89223L37.9657 3.66478C38.4391 3.94923 38.5923 4.56359 38.3078 5.03699L35.7307 9.32601C35.4463 9.79941 34.8319 9.95258 34.3585 9.66814L33.0728 8.89558C32.5994 8.61113 32.4462 7.99677 32.7306 7.52337L35.3077 3.23436Z" fill="white"/>
<path d="M41.2633 7.32233C40.8728 6.93181 40.2396 6.93181 39.8491 7.32233L37.7277 9.44365C37.3372 9.83418 37.3372 10.4673 37.7277 10.8579L38.7884 11.9185C39.1789 12.3091 39.8121 12.3091 40.2026 11.9185L42.3239 9.79721C42.7145 9.40668 42.7145 8.77352 42.3239 8.38299L41.2633 7.32233Z" fill="white"/>
<path d="M43.9187 11.7681C44.397 11.4919 45.0085 11.6558 45.2847 12.1341L46.0347 13.4331C46.3108 13.9114 46.147 14.523 45.6687 14.7991L43.0706 16.2991C42.5923 16.5753 41.9807 16.4114 41.7046 15.9331L40.9546 14.6341C40.6784 14.1558 40.8423 13.5442 41.3206 13.2681L43.9187 11.7681Z" fill="white"/>
<path d="M47.9234 17.8224C47.7804 17.2889 47.2321 16.9723 46.6986 17.1153L43.8009 17.8917C43.2674 18.0347 42.9508 18.583 43.0938 19.1165L43.482 20.5653C43.6249 21.0988 44.1733 21.4154 44.7067 21.2725L47.6045 20.496C48.138 20.3531 48.4546 19.8047 48.3116 19.2712L47.9234 17.8224Z" fill="white"/>
<path d="M48 23C48.5523 23 49 23.4477 49 24V25.5C49 26.0523 48.5523 26.5 48 26.5H45C44.4477 26.5 44 26.0523 44 25.5V24C44 23.4477 44.4477 23 45 23H48Z" fill="white"/>
<path d="M48.4409 30.2457C48.5838 29.7122 48.2673 29.1639 47.7338 29.021L44.836 28.2445C44.3026 28.1016 43.7542 28.4181 43.6113 28.9516L43.223 30.4005C43.0801 30.934 43.3967 31.4823 43.9302 31.6252L46.8279 32.4017C47.3614 32.5446 47.9097 32.2281 48.0527 31.6946L48.4409 30.2457Z" fill="white"/>
<path d="M46.2847 36.1341C46.5608 35.6558 46.397 35.0442 45.9187 34.7681L43.3206 33.2681C42.8423 32.9919 42.2307 33.1558 41.9546 33.6341L41.2046 34.9331C40.9284 35.4114 41.0923 36.023 41.5706 36.2991L44.1687 37.7991C44.647 38.0753 45.2585 37.9114 45.5347 37.4331L46.2847 36.1341Z" fill="white"/>
</g>
<path d="M25.0659 31.1318C29.2041 31.1318 32.6318 27.7114 32.6318 23.5659C32.6318 19.4277 29.2041 16 25.0586 16C20.9204 16 17.5 19.4277 17.5 23.5659C17.5 27.7114 20.9277 31.1318 25.0659 31.1318ZM24.2529 27.1841C23.9746 27.1841 23.7476 27.0596 23.5425 26.7959L21.748 24.6133C21.6162 24.4521 21.5503 24.2764 21.5503 24.0933C21.5503 23.7197 21.8433 23.4121 22.2241 23.4121C22.4512 23.4121 22.627 23.5 22.8101 23.7344L24.2236 25.5288L27.2559 20.6802C27.4097 20.4238 27.6147 20.2993 27.8491 20.2993C28.2153 20.2993 28.5449 20.5557 28.5449 20.9365C28.5449 21.105 28.457 21.2881 28.3545 21.4492L24.9268 26.7959C24.7583 27.0449 24.5239 27.1841 24.2529 27.1841Z" fill="#EBEDF0"/>
</svg>
