<svg width="16" height="14" viewBox="0 0 22 24" fill="none" xmlns="http://www.w3.org/2000/svg">
<path d="M7.72949 20.7432C7.91211 20.7432 8.05876 20.6906 8.16943 20.5854C8.28011 20.4803 8.33268 20.342 8.32715 20.1704L7.97021 8.19238C7.97021 8.02083 7.91211 7.88525 7.7959 7.78564C7.68522 7.68604 7.54688 7.63623 7.38086 7.63623C7.19271 7.63623 7.04329 7.6888 6.93262 7.79395C6.82747 7.89355 6.77767 8.02913 6.7832 8.20068L7.12354 20.1787C7.1346 20.3503 7.19271 20.4858 7.29785 20.5854C7.40853 20.6906 7.55241 20.7432 7.72949 20.7432ZM11 20.7432C11.1826 20.7432 11.3293 20.6906 11.4399 20.5854C11.5562 20.4803 11.6143 20.342 11.6143 20.1704V8.20068C11.6143 8.02913 11.5562 7.89355 11.4399 7.79395C11.3293 7.6888 11.1826 7.63623 11 7.63623C10.8174 7.63623 10.668 7.6888 10.5518 7.79395C10.4411 7.89355 10.3857 8.02913 10.3857 8.20068V20.1704C10.3857 20.342 10.4411 20.4803 10.5518 20.5854C10.668 20.6906 10.8174 20.7432 11 20.7432ZM14.2622 20.7432C14.4448 20.7432 14.5887 20.6934 14.6938 20.5938C14.8045 20.4941 14.8626 20.3558 14.8682 20.1787L15.2085 8.20898C15.214 8.03743 15.1615 7.89909 15.0508 7.79395C14.9456 7.6888 14.8018 7.63623 14.6191 7.63623C14.4476 7.63623 14.3065 7.68604 14.1958 7.78564C14.0851 7.88525 14.027 8.0236 14.0215 8.20068L13.6729 20.1787C13.6673 20.3447 13.7171 20.4803 13.8223 20.5854C13.9329 20.6906 14.0796 20.7432 14.2622 20.7432ZM6.37646 4.99658V2.63086C6.37646 1.88932 6.60059 1.30827 7.04883 0.887695C7.5026 0.461589 8.12516 0.248535 8.9165 0.248535H13.0586C13.8499 0.248535 14.4697 0.461589 14.918 0.887695C15.3717 1.30827 15.5986 1.88932 15.5986 2.63086V4.99658H14.146V2.71387C14.146 2.38184 14.0409 2.11621 13.8306 1.91699C13.6203 1.71777 13.3353 1.61816 12.9756 1.61816H8.99951C8.63981 1.61816 8.35482 1.71777 8.14453 1.91699C7.93424 2.11621 7.8291 2.38184 7.8291 2.71387V4.99658H6.37646ZM1.396 5.71875C1.21338 5.71875 1.0529 5.65234 0.914551 5.51953C0.776204 5.38118 0.707031 5.21794 0.707031 5.02979C0.707031 4.84163 0.776204 4.67839 0.914551 4.54004C1.0529 4.40169 1.21338 4.33252 1.396 4.33252H20.5957C20.7839 4.33252 20.9443 4.40169 21.0771 4.54004C21.2155 4.67285 21.2847 4.8361 21.2847 5.02979C21.2847 5.21794 21.2183 5.38118 21.0854 5.51953C20.9526 5.65234 20.7894 5.71875 20.5957 5.71875H1.396ZM6.12744 23.9556C5.64046 23.9556 5.21159 23.856 4.84082 23.6567C4.47559 23.4575 4.18506 23.1781 3.96924 22.8184C3.75342 22.4587 3.63444 22.0409 3.6123 21.5649L2.82373 5.50293H19.1763L18.3877 21.5566C18.3656 22.0326 18.2438 22.4504 18.0225 22.8101C17.8066 23.1698 17.5133 23.4492 17.1426 23.6484C16.7773 23.8532 16.3568 23.9556 15.8809 23.9556H6.12744Z" fill="#C8AB58"/>
</svg>
