<svg width="10" height="11" viewBox="0 0 10 11" fill="none" xmlns="http://www.w3.org/2000/svg">
<path d="M3.16773 1.44513L0.311562 7.15414C0.0886128 7.59978 -0.022862 7.8226 0.00391413 8.00372C0.0272952 8.16188 0.114829 8.30343 0.245916 8.39506C0.396039 8.5 0.645304 8.5 1.14383 8.5H6.85617C7.3547 8.5 7.60396 8.5 7.75408 8.39506C7.88517 8.30343 7.9727 8.16188 7.99609 8.00372C8.02286 7.8226 7.91139 7.59978 7.68844 7.15414L4.83227 1.44514C4.5644 0.909699 4.43046 0.641981 4.24922 0.55607C4.09149 0.48131 3.90851 0.48131 3.75078 0.55607C3.56954 0.641981 3.4356 0.909699 3.16773 1.44513Z" fill="#34C85A"/>
</svg>
