<svg width="23" height="23" viewBox="0 0 22 22" fill="none" xmlns="http://www.w3.org/2000/svg">
<path d="M10.9917 21.8145C9.80192 21.8145 8.66748 21.6318 7.58838 21.2666C6.50928 20.9014 5.51872 20.3867 4.6167 19.7227C3.71468 19.0641 2.93164 18.2839 2.26758 17.3818C1.60905 16.4798 1.09717 15.4893 0.731934 14.4102C0.366699 13.3311 0.184082 12.1966 0.184082 11.0068C0.184082 9.81152 0.366699 8.67432 0.731934 7.59521C1.09717 6.51611 1.60905 5.52832 2.26758 4.63184C2.93164 3.72982 3.71468 2.94678 4.6167 2.28271C5.51872 1.61865 6.50928 1.104 7.58838 0.73877C8.66748 0.373535 9.80192 0.190918 10.9917 0.190918C12.187 0.190918 13.3242 0.373535 14.4033 0.73877C15.4824 1.104 16.4702 1.61865 17.3667 2.28271C18.2687 2.94678 19.0518 3.72982 19.7158 4.63184C20.3799 5.52832 20.8945 6.51611 21.2598 7.59521C21.625 8.67432 21.8076 9.81152 21.8076 11.0068C21.8076 12.1966 21.625 13.3311 21.2598 14.4102C20.8945 15.4893 20.3799 16.4798 19.7158 17.3818C19.0518 18.2839 18.2687 19.0641 17.3667 19.7227C16.4702 20.3867 15.4824 20.9014 14.4033 21.2666C13.3242 21.6318 12.187 21.8145 10.9917 21.8145ZM5.91162 12.5176C6.18831 12.5176 6.44287 12.4512 6.67529 12.3184C6.90771 12.18 7.09033 11.9946 7.22314 11.7622C7.36149 11.5298 7.43066 11.2752 7.43066 10.9985C7.43066 10.7163 7.36149 10.4618 7.22314 10.2349C7.0848 10.0024 6.89941 9.81706 6.66699 9.67871C6.4401 9.54036 6.18831 9.47119 5.91162 9.47119C5.62939 9.47119 5.37207 9.54036 5.13965 9.67871C4.91276 9.81706 4.73014 10.0024 4.5918 10.2349C4.45345 10.4618 4.38428 10.7163 4.38428 10.9985C4.38428 11.2752 4.45345 11.5298 4.5918 11.7622C4.73014 11.9946 4.91276 12.18 5.13965 12.3184C5.37207 12.4512 5.62939 12.5176 5.91162 12.5176ZM10.9917 12.5176C11.2739 12.5176 11.5312 12.4512 11.7637 12.3184C11.9961 12.18 12.1787 11.9946 12.3115 11.7622C12.4499 11.5298 12.519 11.2752 12.519 10.9985C12.519 10.7163 12.4499 10.4618 12.3115 10.2349C12.1787 10.0024 11.9961 9.81706 11.7637 9.67871C11.5312 9.54036 11.2739 9.47119 10.9917 9.47119C10.715 9.47119 10.4604 9.54036 10.228 9.67871C9.99561 9.81706 9.81022 10.0024 9.67188 10.2349C9.53906 10.4618 9.47266 10.7163 9.47266 10.9985C9.47266 11.2752 9.53906 11.5298 9.67188 11.7622C9.81022 11.9946 9.99561 12.18 10.228 12.3184C10.4604 12.4512 10.715 12.5176 10.9917 12.5176ZM16.0801 12.5176C16.3568 12.5176 16.6113 12.4512 16.8438 12.3184C17.0762 12.18 17.2616 11.9946 17.3999 11.7622C17.5382 11.5298 17.6074 11.2752 17.6074 10.9985C17.6074 10.7163 17.5382 10.4618 17.3999 10.2349C17.2616 10.0024 17.0762 9.81706 16.8438 9.67871C16.6113 9.54036 16.3568 9.47119 16.0801 9.47119C15.7979 9.47119 15.5405 9.54036 15.3081 9.67871C15.0812 9.81706 14.8986 10.0024 14.7603 10.2349C14.6274 10.4618 14.561 10.7163 14.561 10.9985C14.561 11.2752 14.6274 11.5298 14.7603 11.7622C14.8986 11.9946 15.0812 12.18 15.3081 12.3184C15.5405 12.4512 15.7979 12.5176 16.0801 12.5176Z" fill="#AEAEB2"/>
</svg>
