<svg width="10" height="11" viewBox="0 0 10 11" fill="none" xmlns="http://www.w3.org/2000/svg">
<path d="M3.16773 7.55487L0.311562 1.84586C0.0886128 1.40022 -0.022862 1.1774 0.00391413 0.996277C0.0272952 0.838118 0.114829 0.696568 0.245916 0.604937C0.396039 0.5 0.645304 0.5 1.14383 0.5H6.85617C7.3547 0.5 7.60396 0.5 7.75408 0.604937C7.88517 0.696568 7.97271 0.838118 7.99609 0.996277C8.02286 1.1774 7.91139 1.40022 7.68844 1.84586L4.83227 7.55486C4.5644 8.0903 4.43046 8.35802 4.24922 8.44393C4.09149 8.51869 3.90851 8.51869 3.75078 8.44393C3.56954 8.35802 3.4356 8.0903 3.16773 7.55487Z" fill="#EB445A"/>
</svg>
