<svg width="56" height="56" viewBox="0 0 56 56" fill="current" xmlns="http://www.w3.org/2000/svg">
<path d="M7 7C7 3.13401 10.134 0 14 0H42C45.866 0 49 3.13401 49 7V49C49 52.866 45.866 56 42 56H14C10.134 56 7 52.866 7 49V7ZM14 8.75V15.75C14 16.7165 14.7835 17.5 15.75 17.5H40.25C41.2165 17.5 42 16.7165 42 15.75V8.75C42 7.7835 41.2165 7 40.25 7H15.75C14.7835 7 14 7.7835 14 8.75ZM14 22.75V26.25C14 27.2165 14.7835 28 15.75 28H19.25C20.2165 28 21 27.2165 21 26.25V22.75C21 21.7835 20.2165 21 19.25 21H15.75C14.7835 21 14 21.7835 14 22.75ZM15.75 31.5C14.7835 31.5 14 32.2835 14 33.25V36.75C14 37.7165 14.7835 38.5 15.75 38.5H19.25C20.2165 38.5 21 37.7165 21 36.75V33.25C21 32.2835 20.2165 31.5 19.25 31.5H15.75ZM14 43.75V47.25C14 48.2165 14.7835 49 15.75 49H19.25C20.2165 49 21 48.2165 21 47.25V43.75C21 42.7835 20.2165 42 19.25 42H15.75C14.7835 42 14 42.7835 14 43.75ZM26.25 21C25.2835 21 24.5 21.7835 24.5 22.75V26.25C24.5 27.2165 25.2835 28 26.25 28H29.75C30.7165 28 31.5 27.2165 31.5 26.25V22.75C31.5 21.7835 30.7165 21 29.75 21H26.25ZM24.5 33.25V36.75C24.5 37.7165 25.2835 38.5 26.25 38.5H29.75C30.7165 38.5 31.5 37.7165 31.5 36.75V33.25C31.5 32.2835 30.7165 31.5 29.75 31.5H26.25C25.2835 31.5 24.5 32.2835 24.5 33.25ZM26.25 42C25.2835 42 24.5 42.7835 24.5 43.75V47.25C24.5 48.2165 25.2835 49 26.25 49H29.75C30.7165 49 31.5 48.2165 31.5 47.25V43.75C31.5 42.7835 30.7165 42 29.75 42H26.25ZM35 22.75V26.25C35 27.2165 35.7835 28 36.75 28H40.25C41.2165 28 42 27.2165 42 26.25V22.75C42 21.7835 41.2165 21 40.25 21H36.75C35.7835 21 35 21.7835 35 22.75ZM36.75 31.5C35.7835 31.5 35 32.2835 35 33.25V47.25C35 48.2165 35.7835 49 36.75 49H40.25C41.2165 49 42 48.2165 42 47.25V33.25C42 32.2835 41.2165 31.5 40.25 31.5H36.75Z" fill="#86868B"/>
</svg>
