<svg width="36" height="36" viewBox="0 0 36 36" fill="none" xmlns="http://www.w3.org/2000/svg">
<rect width="36" height="36" rx="18" fill="#1F1F1F"/>
<rect x="0.25" y="0.25" width="35.5" height="35.5" rx="17.75" stroke="#CACACA" stroke-opacity="0.5" stroke-width="0.5"/>
<path d="M11.9531 24.4062C11.8385 24.2969 11.763 24.1667 11.7266 24.0156C11.6901 23.8646 11.6901 23.7135 11.7266 23.5625C11.7682 23.4115 11.8438 23.2839 11.9531 23.1797L16.75 18.3672L11.9531 13.5625C11.8438 13.4583 11.7708 13.3307 11.7344 13.1797C11.6979 13.0286 11.6979 12.8776 11.7344 12.7266C11.7708 12.5755 11.8438 12.4453 11.9531 12.3359C12.0677 12.2214 12.2005 12.1458 12.3516 12.1094C12.5026 12.0729 12.6536 12.0729 12.8047 12.1094C12.9557 12.1458 13.0859 12.2188 13.1953 12.3281L18 17.1328L22.7969 12.3281C22.9062 12.2135 23.0365 12.1406 23.1875 12.1094C23.3385 12.0729 23.487 12.0729 23.6328 12.1094C23.7839 12.1458 23.9193 12.2214 24.0391 12.3359C24.1484 12.4453 24.2214 12.5755 24.2578 12.7266C24.2995 12.8776 24.2995 13.0286 24.2578 13.1797C24.2214 13.3255 24.1484 13.4557 24.0391 13.5703L19.2422 18.3672L24.0391 23.1719C24.1484 23.2865 24.2214 23.4193 24.2578 23.5703C24.2943 23.7161 24.2943 23.8646 24.2578 24.0156C24.2214 24.1667 24.1484 24.2969 24.0391 24.4062C23.9245 24.5208 23.7917 24.5964 23.6406 24.6328C23.4896 24.6693 23.3385 24.6693 23.1875 24.6328C23.0365 24.5964 22.9062 24.5234 22.7969 24.4141L18 19.6094L13.1953 24.4141C13.0859 24.5234 12.9557 24.5964 12.8047 24.6328C12.6589 24.6693 12.5078 24.6693 12.3516 24.6328C12.2005 24.5964 12.0677 24.5208 11.9531 24.4062Z" fill="#CACACA"/>
</svg>
