<svg xmlns="http://www.w3.org/2000/svg" width="30" height="24" viewBox="0 0 150 120"><g fill="#027AFF"><path d="M28.92 46.57h.03c10.333.867 13.696 6.715 16.039 13.876 2.58 7.794 3.936 17.145 11.742 23.379.51.39 1.02.78 1.563 1.106.36.27.72.48 1.11.72.51.33 1.05.63 1.623.9a29.485 29.485 0 0011.232 3.352 59.914 59.914 0 00-.24 6.131 1.514 1.514 0 001.515 1.485h4.428a1.49 1.49 0 011.5 1.566c-.084 1.852-.19 5.128.033 8.716-.39.06-.783.09-1.2.09-.303.03-.63.06-.963.06h-.06c-.72.03-1.443.06-2.193.06h-.027c-.75 0-1.473-.03-2.193-.06h-.06c-.51 0-.993-.06-1.473-.09-.15 0-.27-.03-.42-.03l-.27-.03c-.39-.03-.783-.06-1.143-.12-1.23-.12-2.433-.33-3.603-.54-.6-.12-1.17-.24-1.77-.39-.648-.15-1.245-.303-1.917-.454-1.39-.314-2.736-.8-4.056-1.328-.612-.246-1.224-.46-1.806-.735-.66-.27-1.32-.567-1.983-.897-.6-.273-1.23-.57-1.83-.93-.543-.27-1.053-.54-1.533-.84-.51-.3-1.023-.6-1.503-.897-.48-.303-.99-.63-1.47-.96-.39 2.007-.51 5.454-.51 8 0 2.56.129 6.52.32 9.469a2.642 2.642 0 01-2.642 2.82H3.004c-1.653 0-3.003-1.32-3.003-2.968v-1.192c.02-14.223.78-71.623 28.92-69.269zM33.014 0c11.01 0 18.933 7.32 20.64 17.01.24 1.29.36 2.61.36 3.99 0 11.61-8.52 21-21 21-.84 0-1.65-.03-2.433-.15C19.423 40.74 12.013 31.83 12.013 21c0-11.61 8.52-21 21-21z"/><path fill="#A6CAFF" d="M149.995 117.032c0 1.65-1.347 2.967-2.997 2.967H104.79a2.557 2.557 0 01-2.562-2.73c.195-2.96.327-6.972.327-9.558 0-2.547-.12-5.994-.507-8a46.062 46.062 0 01-6.21 3.566c-.69.36-1.407.657-2.13.957-.687.3-1.38.57-2.097.84-.75.3-1.53.54-2.307.78-.663.21-1.323.39-2.01.567-.453.12-.87.24-1.323.333-.597.15-1.167.27-1.767.39-1.17.207-2.37.417-3.6.537-.36.06-.75.09-1.14.12-.22-3.585-.114-6.864-.033-8.715a1.484 1.484 0 00-1.5-1.563h-4.416A1.519 1.519 0 0172 96.035a59.796 59.796 0 01.24-6.126c.9.09 1.857.12 2.787.12.96 0 1.89-.03 2.82-.12.087 0 .18-.03.237-.03 3.78-.39 7.347-1.47 10.59-3.147.237-.12.447-.21.657-.33.42-.21.84-.45 1.227-.72a33.016 33.016 0 003.363-2.337c.267-.24.537-.48.807-.72 6.537-6.144 7.917-14.745 10.287-21.996 2.337-7.254 5.697-13.158 16.07-14.058 28.999-2.457 28.909 58.653 28.909 70.461zM117.013 0c12.48 0 21 9.39 21 21 0 10.83-7.41 19.74-18.57 20.85-.78.12-1.59.15-2.43.15-12.48 0-21-9.39-21-21 0-1.38.12-2.7.36-3.99C98.083 7.32 106.003 0 117.013 0z"/></g></svg>