<svg width="25" height="25" viewBox="0 0 30 30" fill="none" xmlns="http://www.w3.org/2000/svg">
<path fill-rule="evenodd" clip-rule="evenodd" d="M14.0625 2.5C14.5423 2.5 14.9575 2.83183 15.0625 3.30005L16.5723 10.0498C16.9553 11.7538 18.2462 13.0447 19.9502 13.4277L26.7 14.9375C27.1682 15.0425 27.5 15.4577 27.5 15.9375C27.5 16.4173 27.1682 16.8325 26.7 16.9375L19.9502 18.4473C18.2462 18.8303 16.9553 20.1212 16.5723 21.8252L15.0625 28.5C14.9575 28.9682 14.5423 29.3 14.0625 29.3C13.5827 29.3 13.1675 28.9682 13.0625 28.5L11.5527 21.8252C11.1697 20.1212 9.87884 18.8303 8.17481 18.4473L1.42505 16.9375C0.956829 16.8325 0.625 16.4173 0.625 15.9375C0.625 15.4577 0.956829 15.0425 1.42505 14.9375L8.17481 13.4277C9.87884 13.0447 11.1697 11.7538 11.5527 10.0498L13.0625 3.30005C13.1675 2.83183 13.5827 2.5 14.0625 2.5Z" fill="#C8AB58"/>
</svg>
