<svg width="25" height="25" viewBox="0 0 30 30" fill="none" xmlns="http://www.w3.org/2000/svg">
<path d="M3.75 3.75C3.75 2.75544 4.14509 1.80161 4.84835 1.09835C5.55161 0.395088 6.50544 0 7.5 0L22.5 0C23.4946 0 24.4484 0.395088 25.1516 1.09835C25.8549 1.80161 26.25 2.75544 26.25 3.75V26.25C26.25 27.2446 25.8549 28.1984 25.1516 28.9016C24.4484 29.6049 23.4946 30 22.5 30H7.5C6.50544 30 5.55161 29.6049 4.84835 28.9016C4.14509 28.1984 3.75 27.2446 3.75 26.25V3.75ZM7.5 4.6875V8.4375C7.5 8.68614 7.59877 8.9246 7.77459 9.10041C7.9504 9.27623 8.18886 9.375 8.4375 9.375H21.5625C21.8111 9.375 22.0496 9.27623 22.2254 9.10041C22.4012 8.9246 22.5 8.68614 22.5 8.4375V4.6875C22.5 4.43886 22.4012 4.2004 22.2254 4.02459C22.0496 3.84877 21.8111 3.75 21.5625 3.75H8.4375C8.18886 3.75 7.9504 3.84877 7.77459 4.02459C7.59877 4.2004 7.5 4.43886 7.5 4.6875ZM7.5 12.1875V14.0625C7.5 14.3111 7.59877 14.5496 7.77459 14.7254C7.9504 14.9012 8.18886 15 8.4375 15H10.3125C10.5611 15 10.7996 14.9012 10.9754 14.7254C11.1512 14.5496 11.25 14.3111 11.25 14.0625V12.1875C11.25 11.9389 11.1512 11.7004 10.9754 11.5246C10.7996 11.3488 10.5611 11.25 10.3125 11.25H8.4375C8.18886 11.25 7.9504 11.3488 7.77459 11.5246C7.59877 11.7004 7.5 11.9389 7.5 12.1875ZM8.4375 16.875C8.18886 16.875 7.9504 16.9738 7.77459 17.1496C7.59877 17.3254 7.5 17.5639 7.5 17.8125V19.6875C7.5 19.9361 7.59877 20.1746 7.77459 20.3504C7.9504 20.5262 8.18886 20.625 8.4375 20.625H10.3125C10.5611 20.625 10.7996 20.5262 10.9754 20.3504C11.1512 20.1746 11.25 19.9361 11.25 19.6875V17.8125C11.25 17.5639 11.1512 17.3254 10.9754 17.1496C10.7996 16.9738 10.5611 16.875 10.3125 16.875H8.4375ZM7.5 23.4375V25.3125C7.5 25.5611 7.59877 25.7996 7.77459 25.9754C7.9504 26.1512 8.18886 26.25 8.4375 26.25H10.3125C10.5611 26.25 10.7996 26.1512 10.9754 25.9754C11.1512 25.7996 11.25 25.5611 11.25 25.3125V23.4375C11.25 23.1889 11.1512 22.9504 10.9754 22.7746C10.7996 22.5988 10.5611 22.5 10.3125 22.5H8.4375C8.18886 22.5 7.9504 22.5988 7.77459 22.7746C7.59877 22.9504 7.5 23.1889 7.5 23.4375ZM14.0625 11.25C13.8139 11.25 13.5754 11.3488 13.3996 11.5246C13.2238 11.7004 13.125 11.9389 13.125 12.1875V14.0625C13.125 14.3111 13.2238 14.5496 13.3996 14.7254C13.5754 14.9012 13.8139 15 14.0625 15H15.9375C16.1861 15 16.4246 14.9012 16.6004 14.7254C16.7762 14.5496 16.875 14.3111 16.875 14.0625V12.1875C16.875 11.9389 16.7762 11.7004 16.6004 11.5246C16.4246 11.3488 16.1861 11.25 15.9375 11.25H14.0625ZM13.125 17.8125V19.6875C13.125 19.9361 13.2238 20.1746 13.3996 20.3504C13.5754 20.5262 13.8139 20.625 14.0625 20.625H15.9375C16.1861 20.625 16.4246 20.5262 16.6004 20.3504C16.7762 20.1746 16.875 19.9361 16.875 19.6875V17.8125C16.875 17.5639 16.7762 17.3254 16.6004 17.1496C16.4246 16.9738 16.1861 16.875 15.9375 16.875H14.0625C13.8139 16.875 13.5754 16.9738 13.3996 17.1496C13.2238 17.3254 13.125 17.5639 13.125 17.8125ZM14.0625 22.5C13.8139 22.5 13.5754 22.5988 13.3996 22.7746C13.2238 22.9504 13.125 23.1889 13.125 23.4375V25.3125C13.125 25.5611 13.2238 25.7996 13.3996 25.9754C13.5754 26.1512 13.8139 26.25 14.0625 26.25H15.9375C16.1861 26.25 16.4246 26.1512 16.6004 25.9754C16.7762 25.7996 16.875 25.5611 16.875 25.3125V23.4375C16.875 23.1889 16.7762 22.9504 16.6004 22.7746C16.4246 22.5988 16.1861 22.5 15.9375 22.5H14.0625ZM18.75 12.1875V14.0625C18.75 14.3111 18.8488 14.5496 19.0246 14.7254C19.2004 14.9012 19.4389 15 19.6875 15H21.5625C21.8111 15 22.0496 14.9012 22.2254 14.7254C22.4012 14.5496 22.5 14.3111 22.5 14.0625V12.1875C22.5 11.9389 22.4012 11.7004 22.2254 11.5246C22.0496 11.3488 21.8111 11.25 21.5625 11.25H19.6875C19.4389 11.25 19.2004 11.3488 19.0246 11.5246C18.8488 11.7004 18.75 11.9389 18.75 12.1875ZM19.6875 16.875C19.4389 16.875 19.2004 16.9738 19.0246 17.1496C18.8488 17.3254 18.75 17.5639 18.75 17.8125V25.3125C18.75 25.5611 18.8488 25.7996 19.0246 25.9754C19.2004 26.1512 19.4389 26.25 19.6875 26.25H21.5625C21.8111 26.25 22.0496 26.1512 22.2254 25.9754C22.4012 25.7996 22.5 25.5611 22.5 25.3125V17.8125C22.5 17.5639 22.4012 17.3254 22.2254 17.1496C22.0496 16.9738 21.8111 16.875 21.5625 16.875H19.6875Z" fill="#86868B"/>
</svg>
