<svg width="25" height="25" viewBox="0 0 30 30" fill="none" xmlns="http://www.w3.org/2000/svg">
<path fill-rule="evenodd" clip-rule="evenodd" d="M15.3956 3.83812C15.2717 3.78044 15.1366 3.75055 15 3.75055C14.8633 3.75055 14.7282 3.78044 14.6043 3.83812L0.541834 10.4006C0.376239 10.4779 0.236844 10.6019 0.140792 10.7574C0.0447414 10.9129 -0.00377751 11.093 0.00120282 11.2757C0.00618314 11.4584 0.0644455 11.6356 0.168825 11.7856C0.273204 11.9356 0.419148 12.0518 0.588709 12.12L14.6512 17.745C14.8751 17.8347 15.1249 17.8347 15.3487 17.745L26.25 13.3875V24.375C25.7527 24.375 25.2758 24.5725 24.9241 24.9242C24.5725 25.2758 24.375 25.7527 24.375 26.25V30H30V26.25C30 25.7527 29.8024 25.2758 29.4508 24.9242C29.0992 24.5725 28.6222 24.375 28.125 24.375V12.6356L29.4112 12.12C29.5808 12.0518 29.7267 11.9356 29.8311 11.7856C29.9355 11.6356 29.9937 11.4584 29.9987 11.2757C30.0037 11.093 29.9552 10.9129 29.8591 10.7574C29.7631 10.6019 29.6237 10.4779 29.4581 10.4006L15.3956 3.83812V3.83812Z" fill="#86868B"/>
<path fill-rule="evenodd" clip-rule="evenodd" d="M7.82995 16.935C7.70923 16.8895 7.58042 16.8695 7.45159 16.876C7.32275 16.8826 7.19667 16.9157 7.08121 16.9733C6.96576 17.0308 6.86343 17.1116 6.78062 17.2105C6.69781 17.3094 6.6363 17.4244 6.59995 17.5481L5.66245 20.7356C5.59678 20.9594 5.61687 21.1996 5.7188 21.4094C5.82073 21.6191 5.99718 21.7834 6.2137 21.87L14.6512 25.245C14.875 25.3347 15.1249 25.3347 15.3487 25.245L23.7862 21.87C24.0027 21.7834 24.1792 21.6191 24.2811 21.4094C24.383 21.1996 24.4031 20.9594 24.3374 20.7356L23.3999 17.5481C23.3636 17.4244 23.3021 17.3094 23.2193 17.2105C23.1365 17.1116 23.0341 17.0308 22.9187 16.9733C22.8032 16.9157 22.6771 16.8826 22.5483 16.876C22.4195 16.8695 22.2907 16.8895 22.1699 16.935L14.9999 19.6238L7.82995 16.935Z" fill="#86868B"/>
</svg>
