<svg width="40" height="20" viewBox="10 0 25 25"  fill="none" xmlns="http://www.w3.org/2000/svg">
<path d="M25.3856 11.6484C28.2662 11.6484 30.6995 9.07463 30.6995 5.74461C30.6995 2.4942 28.253 0 25.3856 0C22.5314 0 20.0718 2.534 20.0849 5.77114C20.0849 9.07463 22.5051 11.6484 25.3856 11.6484ZM10.1807 11.9536C12.6929 11.9536 14.8106 9.69818 14.8106 6.80597C14.8106 3.96683 12.6666 1.80431 10.1807 1.80431C7.69474 1.80431 5.55079 4.00663 5.56394 6.8325C5.56394 9.69818 7.68159 11.9536 10.1807 11.9536ZM2.93332 24H12.7981C11.3908 21.9701 12.9034 17.9635 15.876 15.602C14.4291 14.66 12.5482 13.9701 10.1807 13.9701C4.30124 13.9701 0.5 18.335 0.5 21.9303C0.5 23.2438 1.15765 24 2.93332 24ZM17.1913 23.9867H33.58C35.7503 23.9867 36.5 23.3234 36.5 22.1028C36.5 18.6932 32.1989 13.9967 25.3856 13.9967C18.5592 13.9967 14.2713 18.6932 14.2713 22.1028C14.2713 23.3234 15.021 23.9867 17.1913 23.9867Z" fill="#86868B"/>
</svg>
