<svg width="25" height="25" viewBox="0 0 30 30" fill="none" xmlns="http://www.w3.org/2000/svg">
<path d="M20.625 3.75C20.625 3.25272 20.8225 2.77581 21.1742 2.42417C21.5258 2.07254 22.0027 1.875 22.5 1.875H26.25C26.7473 1.875 27.2242 2.07254 27.5758 2.42417C27.9275 2.77581 28.125 3.25272 28.125 3.75V26.25H29.0625C29.3111 26.25 29.5496 26.3488 29.7254 26.5246C29.9012 26.7004 30 26.9389 30 27.1875C30 27.4361 29.9012 27.6746 29.7254 27.8504C29.5496 28.0262 29.3111 28.125 29.0625 28.125H0.9375C0.68886 28.125 0.450403 28.0262 0.274587 27.8504C0.0987721 27.6746 0 27.4361 0 27.1875C0 26.9389 0.0987721 26.7004 0.274587 26.5246C0.450403 26.3488 0.68886 26.25 0.9375 26.25H1.875V20.625C1.875 20.1277 2.07254 19.6508 2.42417 19.2992C2.77581 18.9475 3.25272 18.75 3.75 18.75H7.5C7.99728 18.75 8.47419 18.9475 8.82582 19.2992C9.17746 19.6508 9.375 20.1277 9.375 20.625V26.25H11.25V13.125C11.25 12.6277 11.4475 12.1508 11.7992 11.7992C12.1508 11.4475 12.6277 11.25 13.125 11.25H16.875C17.3723 11.25 17.8492 11.4475 18.2008 11.7992C18.5525 12.1508 18.75 12.6277 18.75 13.125V26.25H20.625V3.75Z" fill="#86868B"/>
</svg>
