<svg width="44" height="44" viewBox="0 0 44 44" fill="none" xmlns="http://www.w3.org/2000/svg">
<g clip-path="url(#clip0_60_20565)">
<path d="M21.3062 37.3613C18.9556 37.3613 16.8976 36.9365 15.1323 36.0869C13.3765 35.2373 12.0076 34.0479 11.0259 32.5186C10.0535 30.9893 9.56738 29.2051 9.56738 27.166C9.56738 26.0804 9.65234 25.1411 9.82227 24.3481C9.99219 23.5457 10.1999 22.8377 10.4453 22.2241C10.7002 21.6105 10.9551 21.0347 11.21 20.4966C11.4648 19.9585 11.6725 19.4157 11.833 18.8682C12.0029 18.3112 12.0879 17.6976 12.0879 17.0273C12.0879 16.612 12.069 16.2438 12.0312 15.9229C12.0029 15.5924 11.9888 15.2856 11.9888 15.0024C11.9888 14.5493 12.1115 14.1953 12.3569 13.9404C12.6118 13.6855 12.9422 13.5581 13.3481 13.5581C13.7824 13.5581 14.2214 13.6761 14.665 13.9121C15.1087 14.1387 15.5288 14.5021 15.9253 15.0024C16.3218 15.4933 16.6805 16.14 17.0015 16.9424L16.4492 17.0981C16.5719 16.8716 16.6475 16.6686 16.6758 16.4893C16.7041 16.3099 16.7183 16.1258 16.7183 15.937C16.7183 15.0685 16.5672 14.2472 16.2651 13.4731C15.9631 12.6991 15.5571 11.9438 15.0474 11.2075C14.5376 10.4618 13.9759 9.71598 13.3623 8.97021C13.1829 8.75309 13.0413 8.52653 12.9375 8.29053C12.8337 8.04508 12.7817 7.79964 12.7817 7.5542C12.7817 6.93115 13.0366 6.45443 13.5464 6.12402C14.0562 5.79362 14.7311 5.62842 15.5713 5.62842C16.8363 5.62842 18.1768 5.78418 19.5928 6.0957C21.0182 6.39779 22.4342 6.87451 23.8408 7.52588C25.2568 8.16781 26.5973 8.9891 27.8623 9.98975C29.1367 10.9904 30.2648 12.1751 31.2466 13.5439C32.2378 14.9128 33.0166 16.4751 33.583 18.231C34.1494 19.9868 34.4326 21.9551 34.4326 24.1357C34.4326 26.1087 34.1211 27.9071 33.498 29.5308C32.875 31.1545 31.9829 32.5469 30.8218 33.708C29.6606 34.8786 28.2777 35.7801 26.6729 36.4126C25.068 37.0451 23.2791 37.3613 21.3062 37.3613ZM21.6743 32.3203C22.7316 32.3203 23.6284 32.0938 24.3647 31.6406C25.1011 31.1875 25.658 30.5786 26.0356 29.814C26.4227 29.0399 26.6162 28.1761 26.6162 27.2227C26.6162 26.2409 26.4368 25.2827 26.0781 24.3481C25.7194 23.4136 25.1908 22.5687 24.4922 21.8135C23.8031 21.0583 22.9582 20.4635 21.9575 20.0293C21.8348 19.9727 21.7215 19.9774 21.6177 20.0435C21.5233 20.1095 21.4902 20.2181 21.5186 20.3691C21.6602 21.3698 21.6885 22.3138 21.6035 23.2012C21.528 24.0791 21.3203 24.8296 20.9805 25.4526C20.82 24.9995 20.6359 24.5983 20.4282 24.249C20.23 23.8903 19.9845 23.5693 19.6919 23.2861C19.5786 23.1917 19.4701 23.1681 19.3662 23.2153C19.2718 23.2625 19.2199 23.3428 19.2104 23.4561C19.1538 23.9281 19.0264 24.3434 18.8281 24.7021C18.6299 25.0609 18.4128 25.4149 18.1768 25.7642C17.9502 26.104 17.752 26.4863 17.582 26.9111C17.4121 27.3359 17.3271 27.8457 17.3271 28.4404C17.3271 29.6016 17.7236 30.5409 18.5166 31.2583C19.319 31.9663 20.3716 32.3203 21.6743 32.3203Z" fill="#FF4900"/>
</g>
<defs>
<clipPath id="clip0_60_20565">
<rect width="44" height="44" fill="white"/>
</clipPath>
</defs>
</svg>
