<svg width="45" height="40" viewBox="0 0 45 40" fill="none" xmlns="http://www.w3.org/2000/svg">
<path d="M8.13475 12.7673C8.20538 13.2979 8.28758 13.8272 8.35908 14.3582C8.43357 14.909 8.46482 15.4684 8.57998 16.011C8.79618 17.0313 9.04492 18.0458 9.30778 19.0562C9.54667 19.975 9.9324 20.846 10.3704 21.6901C10.7784 22.4765 11.2647 23.2204 11.8722 23.8846C12.3859 24.447 12.9498 24.9631 13.6519 25.2874C14.041 25.4664 14.4922 25.5263 14.9212 25.6174C15.9581 25.8349 16.998 26.0395 18.0375 26.2475C18.7627 26.3921 19.4885 26.5349 20.2149 26.6757C20.4007 26.7116 20.5895 26.7335 20.777 26.7619C20.7817 26.7417 20.7868 26.7207 20.7915 26.7009C20.7205 26.6596 20.6485 26.6184 20.5775 26.5746C19.7671 26.0828 18.9288 25.6282 18.1535 25.0893C17.0729 24.3389 16.0823 23.4803 15.1443 22.5648C14.7256 22.1572 14.3133 21.7528 14.1536 21.1736C13.9824 20.5464 13.782 19.9259 13.621 19.2959C13.4665 18.6907 13.3265 18.0801 13.2156 17.4661C13.0842 16.7363 12.9801 16.0011 12.8825 15.2659C12.6685 13.6568 12.4613 12.0502 12.5169 10.4226C12.5435 9.65892 12.6026 8.90184 12.8427 8.16745C13.1154 7.33404 13.6095 6.65618 14.3535 6.15118C15.0976 5.64619 15.9525 5.35367 16.8293 5.13789C17.8589 4.88416 18.9118 4.72869 19.973 4.67374C21.3883 4.6003 22.808 4.56234 24.2259 4.5706C26.0389 4.58132 27.8409 4.73563 29.5979 5.21257C30.4742 5.45021 31.3 5.78151 32.0017 6.35665C32.6008 6.84169 33.0179 7.503 33.1889 8.23883C33.3109 8.74506 33.4162 9.26532 33.4333 9.78187C33.462 10.6586 33.438 11.5382 33.3957 12.4149C33.3284 13.8687 33.1654 15.3169 32.9076 16.7507C32.7424 17.6613 32.5685 18.5702 32.3939 19.4787C32.3499 19.7077 32.2928 19.9341 32.2226 20.157C32.0799 20.6075 31.9287 21.0554 31.7688 21.5007C31.7145 21.653 31.6554 21.8184 31.5479 21.9352C31.2431 22.2677 30.9314 22.5994 30.5872 22.8932C29.8462 23.5253 29.1051 24.161 28.3216 24.7424C27.6602 25.2292 26.9457 25.6542 26.244 26.0882C25.9289 26.2825 25.5826 26.4294 25.2503 26.5977L25.2645 26.6613C25.3361 26.6593 25.4076 26.6532 25.4785 26.6431C25.7714 26.5849 26.0621 26.5193 26.3549 26.4612C27.1306 26.311 27.9077 26.1678 28.6825 26.0156C29.6942 25.8163 30.7067 25.6203 31.7145 25.4029C31.9991 25.3462 32.2724 25.2455 32.5236 25.1046C33.3935 24.5922 34.0875 23.8974 34.6702 23.0937C35.2552 22.2954 35.7344 21.4297 36.0966 20.5167C36.3535 19.8653 36.6249 19.2142 36.8013 18.5413C37.0607 17.5511 37.2911 16.5498 37.4435 15.5406C37.6974 13.8693 37.9011 12.1905 38.0857 10.5109C38.2235 9.25294 38.149 7.99664 37.8129 6.7684C37.3905 5.22288 36.531 3.94568 35.2344 2.93678C34.0267 1.99528 32.6426 1.39498 31.1673 0.975801C30.6771 0.836763 30.1779 0.722891 29.6771 0.624284C28.9672 0.485245 28.2561 0.338368 27.5365 0.252964C26.646 0.149406 25.7491 0.0821557 24.8531 0.0466746C23.8782 0.00582976 22.9 -0.0164486 21.9252 0.0144948C20.6087 0.0557526 19.2906 0.111863 17.9904 0.344557C17.1038 0.502986 16.2098 0.635837 15.3361 0.842126C14.4528 1.05572 13.5948 1.35643 12.7755 1.73948C11.745 2.21436 10.8028 2.81219 10.0129 3.60764C9.25528 4.36315 8.68453 5.27381 8.34324 6.27165C8.08637 7.01966 7.89671 7.77468 7.88815 8.5627C7.87959 9.35073 7.86675 10.128 7.90913 10.9082C7.94295 11.53 8.05383 12.148 8.13475 12.7673Z" fill="#B3B3B3"/>
<path d="M44.9997 37.3965C44.9363 32.3199 44.875 27.2431 44.8156 22.1662H44.8207C44.7991 20.7164 44.7774 19.2669 44.7557 17.8176C44.7086 14.2043 44.6625 10.5908 44.6174 6.97716C44.6208 6.86054 44.6166 6.74383 44.605 6.6277C44.56 6.32405 44.2265 6.10827 44.0146 6.26051C43.8271 6.39501 43.6349 6.55839 43.5257 6.75148C43.285 7.1813 43.072 7.62497 42.8878 8.07998C42.6703 8.59566 42.4833 9.12282 42.3278 9.65892C42.1395 10.3384 41.9853 11.0291 41.8569 11.7218C41.7315 12.3964 41.6356 13.0775 41.5607 13.7591C41.4669 14.6119 41.3868 15.4672 41.3389 16.3233C41.2755 17.455 41.24 18.5883 41.213 19.7213C41.2053 20.0423 41.2678 20.3694 41.4999 20.6265C41.7176 20.8744 41.949 21.1108 42.193 21.3349C42.4991 21.6092 42.7495 21.929 42.878 22.2995C42.9829 22.6268 43.0301 22.9688 43.0175 23.3111C42.9529 26.0783 42.8643 28.8455 42.794 31.6126C42.7452 33.5356 42.7136 35.4591 42.6776 37.3825C42.676 37.5127 42.6904 37.6426 42.7204 37.7695C42.7799 38.0282 42.9773 38.211 43.2538 38.2234C43.6391 38.2411 44.0244 38.2382 44.4072 38.2234C44.5159 38.2188 44.6311 38.1524 44.7266 38.0905C44.9826 37.9242 45.0031 37.6684 44.9997 37.3965Z" fill="#B3B3B3"/>
<path d="M28.2236 15.4717C29.3869 14.5162 30.5525 13.5631 31.7204 12.6126C31.9015 12.4648 31.9071 12.3914 31.7059 12.2722C31.078 11.9009 30.4465 11.5345 29.8115 11.1731C29.0516 10.7411 28.2253 10.4498 27.3918 10.1915C26.7571 9.99305 26.1074 9.84228 25.4486 9.74059C24.627 9.61682 23.7935 9.56979 22.9655 9.48975C22.1324 9.57226 21.3036 9.60898 20.4919 9.74348C19.7683 9.86313 19.0547 10.0632 18.3513 10.2774C17.7335 10.4663 17.1132 10.6771 16.5395 10.9627C15.7475 11.3575 14.9983 11.8291 14.2324 12.2738C14.0235 12.3955 14.0299 12.4566 14.2118 12.6064C14.625 12.9459 15.033 13.2917 15.4482 13.6287C16.2501 14.2798 17.0601 14.9222 17.8555 15.5802C18.0182 15.7147 18.1522 15.7151 18.335 15.645C19.4023 15.2324 20.5218 15.0261 21.6593 14.9321C22.8324 14.8351 24.0067 14.8496 25.178 15.0204C25.9777 15.1367 26.7736 15.2704 27.5087 15.5934C27.825 15.7308 28.0057 15.6495 28.2236 15.4717Z" fill="#B3B3B3"/>
<path d="M4.26714 13.4963C4.19778 12.6134 4.14298 11.7292 4.08176 10.8455C4.07235 10.7052 3.99314 10.6392 3.85015 10.6326C3.65536 10.6252 3.6087 10.6784 3.61127 10.928C3.6281 12.4738 3.64594 14.0197 3.66478 15.5658C3.66478 15.7147 3.63781 15.8282 3.45072 15.8298C3.27948 15.8298 3.19771 15.7609 3.19385 15.5823C3.17245 14.6069 3.14505 13.6316 3.11166 12.6563C3.09025 12.0457 3.05129 11.435 3.02603 10.824C3.02004 10.6693 2.94726 10.6235 2.79742 10.6318C2.6159 10.6421 2.62617 10.7691 2.62189 10.8834C2.59578 11.8381 2.56881 12.7928 2.54997 13.748C2.53798 14.3668 2.54055 14.9857 2.5337 15.6046C2.5337 15.8022 2.43609 15.8727 2.23402 15.8476C2.05036 15.8249 2.06277 15.6966 2.06021 15.5703C2.03166 14.0314 2.00312 12.4925 1.97458 10.9536C1.97458 10.9057 1.97458 10.8574 1.96945 10.8096C1.9596 10.6858 1.89667 10.6338 1.76138 10.6318C1.57215 10.6293 1.55674 10.7469 1.55161 10.876C1.53191 11.3711 1.51379 11.8655 1.49723 12.3592C1.46127 13.4373 1.42146 14.5154 1.39791 15.5938C1.39363 15.7774 1.2622 15.8587 1.08582 15.8278C0.928699 15.8001 0.921421 15.6846 0.923133 15.5592C0.942826 14.1163 0.96095 12.6733 0.977504 11.2304C0.977504 11.1066 0.986922 10.9829 0.983497 10.8591C0.978788 10.6908 0.891452 10.6157 0.709504 10.633C0.546392 10.6483 0.542111 10.7613 0.533977 10.8698C0.493734 11.4177 0.46291 11.966 0.417958 12.5135C0.332335 13.545 0.239006 14.5789 0.153811 15.6116C0.102437 16.294 0.0493508 16.9789 0.00739558 17.6646C-0.00817988 17.8828 0.000863443 18.1021 0.0343668 18.3185C0.112712 18.7905 0.484743 19.0814 0.818673 19.378C1.43345 19.9247 1.72242 20.5835 1.68389 21.3873C1.6505 22.0804 1.62595 22.7739 1.61026 23.4679C1.5312 26.8673 1.45385 30.2668 1.37822 33.6664C1.34954 34.9041 1.32171 36.1419 1.26605 37.3751C1.24679 37.8108 1.62353 38.1887 2.0662 38.161C2.22931 38.1507 2.39414 38.161 2.5581 38.159C3.01619 38.154 3.32614 37.8582 3.31672 37.4139C3.2936 36.3494 3.2585 35.2854 3.23452 34.2205C3.19685 32.5652 3.16189 30.9097 3.12964 29.2539H3.09838C3.09838 28.7588 3.10909 28.2637 3.09838 27.7686C3.04444 25.591 2.9768 23.4142 2.93313 21.2367C2.92714 20.9359 2.99863 20.6244 3.08768 20.3331C3.23966 19.838 3.63952 19.5034 4.01327 19.1618C4.34762 18.8565 4.61776 18.5182 4.60963 18.0536C4.6015 17.5804 4.56939 17.1068 4.53214 16.6344C4.44737 15.5897 4.34891 14.5434 4.26714 13.4963Z" fill="#B3B3B3"/>
<path d="M19.8591 39.5003C19.4686 38.6881 19.0784 37.8754 18.6882 37.0624C18.439 36.5442 18.1869 36.0276 17.9399 35.509C17.7686 35.148 17.5974 34.8419 17.1157 34.7288C16.5027 34.5852 15.917 34.3286 15.3301 34.0934C14.8078 33.8839 14.2915 33.6553 13.7889 33.4024C12.6961 32.8478 11.6578 32.1988 10.6867 31.4633C9.76259 30.7622 8.89317 29.9966 8.08551 29.1726C8.03798 29.1248 8.0123 29.0567 7.97591 28.9981L7.86246 29.0654C7.94337 29.2939 8.00545 29.5312 8.10905 29.7502C8.50891 30.596 8.88908 31.4525 9.33688 32.2744C10.1631 33.7961 11.2413 35.1778 12.5289 36.3651C13.2528 37.0331 14.023 37.6507 14.8865 38.1392C15.5565 38.5188 16.2608 38.8459 16.9672 39.1611C17.8949 39.5737 18.8868 39.7998 19.8856 39.9933C20.0359 40.0222 20.0736 39.9554 20.0231 39.8336C19.9772 39.7198 19.913 39.6121 19.8591 39.5003Z" fill="#B3B3B3"/>
<path d="M37.9581 29.0822C37.8725 29.1648 37.7868 29.2473 37.7038 29.3298C36.7743 30.2614 35.7773 31.1212 34.6877 31.8746C34.174 32.2298 33.6525 32.5805 33.1037 32.8825C32.3759 33.2823 31.6297 33.6478 30.8775 33.9965C30.4322 34.2027 29.9613 34.3616 29.4955 34.5246C29.1505 34.645 28.7926 34.7308 28.4458 34.8493C28.3621 34.8866 28.2949 34.9514 28.2561 35.032C28.0155 35.5015 27.7809 35.9741 27.5523 36.4496C27.01 37.5719 26.471 38.6956 25.9353 39.8208C25.9194 39.8699 25.9104 39.9208 25.9084 39.9722C25.9614 39.9788 26.0192 40.0015 26.0672 39.9896C26.795 39.8051 27.5318 39.6422 28.2484 39.4219C29.5756 39.0142 30.7824 38.3702 31.9067 37.5838C32.7826 36.9711 33.5969 36.2871 34.287 35.483C34.8136 34.8695 35.3183 34.2345 35.7854 33.5773C36.1766 33.0174 36.5327 32.4354 36.8518 31.8345C37.1763 31.2338 37.4512 30.6071 37.732 29.9862C37.8643 29.6949 37.9636 29.3904 38.0775 29.0917L38.0154 29.0624C37.9949 29.0686 37.9709 29.0699 37.9581 29.0822Z" fill="#B3B3B3"/>
<path d="M38.0488 18.6659C37.5083 19.9612 36.9697 21.2568 36.4331 22.5528C36.3792 22.682 36.3826 22.795 36.4836 22.9155C36.6159 23.0735 36.7204 23.2534 36.8381 23.4234C37.4289 24.276 38.0206 25.1287 38.6131 25.9814C38.6499 26.0342 38.7141 26.0692 38.7796 26.1249C39.1833 24.0856 38.8507 19.7428 38.1837 18.4543C38.1335 18.5216 38.0884 18.5924 38.0488 18.6659Z" fill="#B3B3B3"/>
<path d="M9.50471 22.54C9.26668 21.9686 9.03378 21.3955 8.79875 20.8233C8.49564 20.0886 8.19125 19.3531 7.88558 18.6168C7.86417 18.5656 7.81537 18.5248 7.74815 18.4394C6.97027 20.9916 6.80202 23.529 7.1672 26.1191C7.26708 26.0516 7.354 25.9678 7.42407 25.8716C8.10006 24.8946 8.76921 23.9135 9.45077 22.9398C9.54752 22.8016 9.5655 22.6873 9.50471 22.54Z" fill="#B3B3B3"/>
<path d="M20.8018 35.2458H20.2337L20.2046 35.2908C20.333 35.389 20.4555 35.4909 20.5852 35.5853C21.3331 36.1291 22.0836 36.6684 22.8276 37.2175C22.9496 37.3079 23.028 37.3025 23.1432 37.2175C23.9489 36.623 24.7597 36.0346 25.5671 35.4434C25.615 35.4014 25.6589 35.3553 25.6981 35.3056C25.6362 35.2837 25.5718 35.2688 25.5063 35.2611C23.9383 35.2539 22.3701 35.2488 20.8018 35.2458Z" fill="#B3B3B3"/>
</svg>
