<svg width="21" height="38" viewBox="0 0 21 38" fill="none" xmlns="http://www.w3.org/2000/svg">
<path fill-rule="evenodd" clip-rule="evenodd" d="M0.855135 1.23044C0.987804 1.09744 1.14541 0.991914 1.31892 0.919914C1.49243 0.847914 1.67845 0.810852 1.86631 0.810852C2.05416 0.810852 2.24018 0.847914 2.41369 0.919914C2.5872 0.991914 2.74481 1.09744 2.87748 1.23044L20.016 18.3689C20.149 18.5016 20.2545 18.6592 20.3265 18.8327C20.3985 19.0062 20.4355 19.1922 20.4355 19.3801C20.4355 19.5679 20.3985 19.754 20.3265 19.9275C20.2545 20.101 20.149 20.2586 20.016 20.3913L2.87748 37.5297C2.6093 37.7979 2.24557 37.9486 1.86631 37.9486C1.48704 37.9486 1.12331 37.7979 0.855135 37.5297C0.586956 37.2616 0.436295 36.8978 0.436295 36.5186C0.436295 36.1393 0.586956 35.7756 0.855135 35.5074L16.9853 19.3801L0.855135 3.25278C0.722132 3.12011 0.616607 2.96251 0.544607 2.789C0.472607 2.61548 0.435547 2.42947 0.435547 2.24161C0.435547 2.05375 0.472607 1.86774 0.544607 1.69423C0.616607 1.52071 0.722132 1.36311 0.855135 1.23044Z" fill="#8A8A8C"/>
</svg>
