<svg width="205" height="205" viewBox="0 0 205 205" fill="none" xmlns="http://www.w3.org/2000/svg">
<path d="M102.485 204.54H102.035C45.7981 204.54 0.0449219 158.774 0.0449219 102.52V102.07C0.0449219 45.8173 45.7981 0.0506592 102.035 0.0506592H102.485C158.721 0.0506592 204.474 45.8173 204.474 102.07V102.52C204.474 158.774 158.721 204.54 102.485 204.54ZM102.035 6.97242C49.6108 6.97242 6.96465 49.6312 6.96465 102.07V102.52C6.96465 154.96 49.6108 197.618 102.035 197.618H102.485C154.908 197.618 197.555 154.96 197.555 102.52V102.07C197.555 49.6312 154.908 6.97242 102.485 6.97242H102.035Z" fill="#C3AC64"/>
<path d="M40.9126 98.9211C41.1894 98.7826 41.4663 98.6511 41.7362 98.5265C46.4278 96.353 51.1816 94.318 55.9286 92.283C56.1846 92.283 56.6135 91.9854 56.8557 91.8884C57.2224 91.7292 57.5892 91.577 57.956 91.4178C58.6618 91.1133 59.3676 90.8156 60.0665 90.511C61.4782 89.9088 62.8828 89.3067 64.2944 88.7045C67.1107 87.5002 69.927 86.2958 72.7433 85.0845C78.376 82.6757 84.0157 80.2599 89.6484 77.8511C95.281 75.4423 100.921 73.0267 106.553 70.6179C112.186 68.2091 117.825 65.7935 123.458 63.3847C129.091 60.9759 134.73 58.5602 140.363 56.1515C141.616 55.6116 142.972 54.8086 144.314 54.5733C145.442 54.3726 146.542 53.985 147.677 53.7704C149.829 53.362 152.203 53.1959 154.265 54.0888C154.977 54.4003 155.635 54.8363 156.181 55.3831C158.797 57.9718 158.43 62.2219 157.877 65.8627C154.022 91.2379 150.168 116.62 146.307 141.995C145.781 145.477 145.061 149.298 142.314 151.499C139.989 153.361 136.682 153.568 133.81 152.779C130.938 151.983 128.406 150.315 125.921 148.675C115.618 141.85 105.308 135.025 95.0042 128.2C92.5546 126.58 89.8283 124.462 89.856 121.521C89.8698 119.749 90.9284 118.17 92.0079 116.765C100.962 105.081 113.881 97.0522 123.493 85.9081C124.849 84.3369 125.915 81.499 124.053 80.5923C122.946 80.0524 121.673 80.7859 120.662 81.485C107.958 90.3103 95.2603 99.1424 82.5556 107.968C78.4107 110.847 74.0651 113.81 69.0691 114.516C64.599 115.152 60.1012 113.907 55.7763 112.633C52.1504 111.567 48.5313 110.473 44.9261 109.345C43.0093 108.75 41.0303 108.106 39.5495 106.756C38.0686 105.407 37.2176 103.136 38.1103 101.337C38.6708 100.209 39.7572 99.4956 40.8989 98.9141L40.9126 98.9211Z" fill="#C3AC64"/>
</svg>
