<svg width="56" height="56" viewBox="0 0 56 56" fill="none" xmlns="http://www.w3.org/2000/svg">
<path d="M42.5968 33.3548C50.6689 24.2837 54.0698 16.9614 55.3393 11.5923C56.0735 8.4871 56.0879 6.06143 55.8956 4.36538C55.7997 3.51924 55.653 2.8599 55.5218 2.39326C55.4563 2.16006 55.3947 1.97527 55.3454 1.83959C55.3146 1.75499 55.2821 1.67063 55.2461 1.58814L55.2444 1.58426C54.991 1.01107 54.6612 0.764798 54.0149 0.554512C53.8783 0.510035 53.6915 0.454446 53.4556 0.395763C52.9837 0.278351 52.3161 0.148787 51.4609 0.0709294C49.7474 -0.0850793 47.2985 -0.0318589 44.1816 0.727459C38.8044 2.03742 31.5165 5.42843 22.6163 13.3413L14.2158 14.1745L14.1945 14.1767C12.1775 14.4012 10.2968 15.3065 8.86174 16.7437L0.523579 25.0945C-0.020468 25.6394 -0.155315 26.4718 0.18877 27.161C0.532854 27.8502 1.27866 28.2416 2.04033 28.1326L8.67697 27.1831C9.65657 27.043 10.7499 27.2313 12.0186 27.6456C12.8318 27.9112 13.5494 28.2045 14.3098 28.5152C14.5407 28.6095 14.7777 28.7064 15.0204 28.8037C15.7091 31.662 17.3348 34.3361 19.4829 36.4875C21.6306 38.6384 24.3 40.2663 27.1533 40.9564C27.2503 41.1988 27.3461 41.4335 27.4402 41.6643C27.7516 42.4276 28.0454 43.148 28.311 43.9632C28.725 45.2336 28.9131 46.3286 28.7731 47.3098L27.825 53.9566C27.7162 54.7194 28.107 55.4663 28.7952 55.8109C29.4834 56.1556 30.3145 56.0205 30.8585 55.4756L39.1967 47.1248C40.6317 45.6876 41.5357 43.804 41.7598 41.7839L42.5968 33.3548ZM42.9809 20.4101C40.1887 23.2066 36.2274 23.7734 34.1332 21.676C32.039 19.5786 32.6049 15.6114 35.3972 12.8149C38.1894 10.0184 42.1507 9.45162 44.2449 11.549C46.3391 13.6464 45.7732 17.6136 42.9809 20.4101Z" fill="#86868B"/>
<path d="M18.219 37.7534C20.1137 39.651 22.2684 41.2881 24.5311 42.4857C20.6168 46.0091 7.28149 49.585 6.84338 49.1463C6.40126 48.7035 9.42243 34.4856 13.2791 31.0141C14.4903 33.4325 16.2082 35.7395 18.219 37.7534Z" fill="#86868B"/>
</svg>
